<svg aria-hidden="true" style="position: absolute; width: 0; height: 0; overflow: hidden;" version="1.1" xmlns="http://www.w3.org/2000/svg" xmlns:xlink="http://www.w3.org/1999/xlink">
<defs>
<symbol id="icon-cart" viewBox="0 0 24 24">
<path d="M4.004 16v-12h-2v-2h3c0.552 0 1 0.448 1 1v12h12.438l2-8h-12.438v-2h13.719c0.552 0 1 0.448 1 1 0 0.082-0.010 0.163-0.030 0.243l-2.5 10c-0.111 0.445-0.511 0.758-0.97 0.758h-14.219c-0.552 0-1-0.448-1-1zM6.004 23c-1.105 0-2-0.895-2-2s0.895-2 2-2c1.105 0 2 0.895 2 2s-0.895 2-2 2zM18.004 23c-1.105 0-2-0.895-2-2s0.895-2 2-2c1.105 0 2 0.895 2 2s-0.895 2-2 2z"></path>
</symbol>
<symbol id="icon-search" viewBox="0 0 24 24">
<path d="M11.215 2c4.968 0 9 4.032 9 9s-4.032 9-9 9c-4.968 0-9-4.032-9-9s4.032-9 9-9zM11.215 18c3.867 0 7-3.133 7-7s-3.133-7-7-7c-3.868 0-7 3.132-7 7s3.132 7 7 7zM19.7 18.071l2.828 2.828-1.414 1.414-2.828-2.828 1.414-1.414z"></path>
</symbol>
<symbol id="icon-Icon" viewBox="0 0 25 24">
<path d="M7.854 8.4l4.406 4.397 4.406-4.397 1.354 1.354-5.76 5.76-5.76-5.76 1.354-1.354z"></path>
</symbol>
<symbol id="icon-checkbox" viewBox="0 0 24 24">
<path d="M4 3h16c0.552 0 1 0.448 1 1v16c0 0.552-0.448 1-1 1h-16c-0.552 0-1-0.448-1-1v-16c0-0.552 0.448-1 1-1zM5 5v14h14v-14h-14zM11.003 16l-4.243-4.243 1.414-1.414 2.828 2.829 5.657-5.657 1.414 1.414-7.071 7.071z"></path>
</symbol>
<symbol id="icon-emotion" viewBox="0 0 24 24">
<path d="M12.215 22c-5.523 0-10-4.477-10-10s4.477-10 10-10c5.523 0 10 4.477 10 10s-4.477 10-10 10zM12.215 20c4.418 0 8-3.582 8-8s-3.582-8-8-8c-4.418 0-8 3.582-8 8s3.582 8 8 8zM7.215 13h2c0 1.657 1.343 3 3 3s3-1.343 3-3h2c0 2.761-2.239 5-5 5s-5-2.239-5-5zM8.215 11c-0.828 0-1.5-0.672-1.5-1.5s0.672-1.5 1.5-1.5 1.5 0.672 1.5 1.5c0 0.828-0.672 1.5-1.5 1.5zM16.215 11c-0.828 0-1.5-0.672-1.5-1.5s0.672-1.5 1.5-1.5c0.828 0 1.5 0.672 1.5 1.5s-0.672 1.5-1.5 1.5z"></path>
</symbol>
<symbol id="icon-pin" viewBox="0 0 24 24">
<path d="M12 23.729l-6.364-6.364c-3.515-3.515-3.515-9.213 0-12.728s9.213-3.515 12.728 0c3.515 3.515 3.515 9.213 0 12.728l-6.364 6.364zM16.95 15.951c2.734-2.734 2.734-7.166 0-9.899s-7.166-2.734-9.899 0-2.734 7.166 0 9.899l4.95 4.95 4.95-4.95zM12 13.001c-1.105 0-2-0.895-2-2s0.895-2 2-2 2 0.895 2 2c0 1.105-0.895 2-2 2z"></path>
</symbol>
<symbol id="icon-calendar" viewBox="0 0 24 24">
<path d="M9.215 1v2h6v-2h2v2h4c0.552 0 1 0.448 1 1v16c0 0.552-0.448 1-1 1h-18c-0.552 0-1-0.448-1-1v-16c0-0.552 0.448-1 1-1h4v-2h2zM20.215 8h-16v11h16v-11zM15.25 10.136l1.414 1.414-4.95 4.95-3.535-3.536 1.414-1.414 2.121 2.121 3.536-3.536z"></path>
</symbol>
<symbol id="icon-chat-heart" viewBox="0 0 24 24">
<path d="M6.453 19l-4.455 3.5v-18.5c0-0.552 0.448-1 1-1h18c0.552 0 1 0.448 1 1v14c0 0.552-0.448 1-1 1h-14.545zM3.998 18.385l1.763-1.385h14.237v-12h-16v13.385zM12.016 14.7l-3.359-3.359c-0.879-0.879-0.879-2.303 0-3.182s2.303-0.879 3.182 0l0.177 0.177 0.177-0.177c0.879-0.879 2.303-0.879 3.182 0s0.879 2.303 0 3.182l-3.359 3.359z"></path>
</symbol>
</defs>
</svg>
