<svg aria-hidden="true" style="position: absolute; width: 0; height: 0; overflow: hidden;" version="1.1" xmlns="http://www.w3.org/2000/svg" xmlns:xlink="http://www.w3.org/1999/xlink">
<defs>
<symbol id="icon-close" viewBox="0 0 24 24">
<path d="M19 6.41l-1.41-1.41-5.59 5.59-5.59-5.59-1.41 1.41 5.59 5.59-5.59 5.59 1.41 1.41 5.59-5.59 5.59 5.59 1.41-1.41-5.59-5.59 5.59-5.59z"></path>
</symbol>
<symbol id="icon-filter" viewBox="0 0 24 24">
<path d="M7.001 6h10l-5.010 6.3-4.99-6.3zM4.251 5.61c2.020 2.59 5.75 7.39 5.75 7.39v6c0 0.55 0.45 1 1 1h2c0.55 0 1-0.45 1-1v-6c0 0 3.72-4.8 5.74-7.39 0.51-0.66 0.040-1.61-0.79-1.61h-13.91c-0.83 0-1.3 0.95-0.79 1.61z"></path>
</symbol>
<symbol id="icon-heart" viewBox="0 0 24 24">
<path d="M12.001 4.529c2.349-2.109 5.979-2.039 8.242 0.229s2.34 5.88 0.236 8.236l-8.479 8.492-8.479-8.492c-2.104-2.356-2.026-5.974 0.236-8.236 2.264-2.264 5.888-2.34 8.244-0.229zM18.827 6.17c-1.499-1.502-3.919-1.563-5.49-0.153l-1.335 1.198-1.336-1.197c-1.575-1.412-3.991-1.35-5.495 0.154-1.49 1.49-1.565 3.876-0.192 5.452l7.020 7.031 7.020-7.031c1.373-1.577 1.299-3.958-0.193-5.453z"></path>
</symbol>
<symbol id="icon-star" viewBox="0 0 26 24">
<path d="M12.8 0l2.874 8.845h9.3l-7.524 5.466 2.874 8.845-7.524-5.466-7.524 5.466 2.874-8.845-7.524-5.466h9.3l2.874-8.845z"></path>
</symbol>
<symbol id="icon-arrow-left" viewBox="0 0 24 24">
<path d="M7.097 11.4h7.303v1.2h-7.303l3.218 3.218-0.849 0.849-4.667-4.667 4.667-4.667 0.849 0.849-3.218 3.218z"></path>
</symbol>
<symbol id="icon-search-2" viewBox="0 0 24 24">
<path d="M16.121 14.476h-0.867l-0.307-0.296c1.076-1.251 1.723-2.876 1.723-4.644 0-3.941-3.195-7.136-7.136-7.136s-7.135 3.195-7.135 7.136 3.195 7.136 7.135 7.136c1.767 0 3.392-0.648 4.644-1.724l0.296 0.307v0.867l5.489 5.478 1.636-1.636-5.478-5.489zM9.534 14.476c-2.733 0-4.94-2.207-4.94-4.94s2.207-4.94 4.94-4.94 4.94 2.207 4.94 4.94c0 2.733-2.207 4.94-4.94 4.94z"></path>
</symbol>
<symbol id="icon-cart-2" viewBox="0 0 24 24">
<path d="M17.456 13.2c0.9 0 1.692-0.492 2.1-1.236l4.296-7.788c0.444-0.792-0.132-1.776-1.044-1.776h-17.76l-1.128-2.4h-3.924v2.4h2.4l4.32 9.108-1.62 2.928c-0.876 1.608 0.276 3.564 2.1 3.564h14.4v-2.4h-14.4l1.32-2.4h8.94zM6.188 4.8h14.58l-3.312 6h-8.424l-2.844-6zM7.196 19.2c-1.32 0-2.388 1.080-2.388 2.4s1.068 2.4 2.388 2.4c1.32 0 2.4-1.080 2.4-2.4s-1.080-2.4-2.4-2.4zM19.196 19.2c-1.32 0-2.388 1.080-2.388 2.4s1.068 2.4 2.388 2.4c1.32 0 2.4-1.080 2.4-2.4s-1.080-2.4-2.4-2.4z"></path>
</symbol>
<symbol id="icon-person" viewBox="0 0 24 24">
<path d="M12 5.9c1.16 0 2.1 0.94 2.1 2.1s-0.94 2.1-2.1 2.1c-1.16 0-2.1-0.94-2.1-2.1s0.94-2.1 2.1-2.1zM12 14.9c2.97 0 6.1 1.46 6.1 2.1v1.1h-12.2v-1.1c0-0.64 3.13-2.1 6.1-2.1zM12 4c-2.21 0-4 1.79-4 4s1.79 4 4 4c2.21 0 4-1.79 4-4s-1.79-4-4-4zM12 13c-2.67 0-8 1.34-8 4v3h16v-3c0-2.66-5.33-4-8-4z"></path>
</symbol>
<symbol id="icon-cart" viewBox="0 0 24 24">
<path d="M4.004 16v-12h-2v-2h3c0.552 0 1 0.448 1 1v12h12.438l2-8h-12.438v-2h13.719c0.552 0 1 0.448 1 1 0 0.082-0.010 0.163-0.030 0.243l-2.5 10c-0.111 0.445-0.511 0.758-0.97 0.758h-14.219c-0.552 0-1-0.448-1-1zM6.004 23c-1.105 0-2-0.895-2-2s0.895-2 2-2c1.105 0 2 0.895 2 2s-0.895 2-2 2zM18.004 23c-1.105 0-2-0.895-2-2s0.895-2 2-2c1.105 0 2 0.895 2 2s-0.895 2-2 2z"></path>
</symbol>
<symbol id="icon-search" viewBox="0 0 24 24">
<path d="M11.215 2c4.968 0 9 4.032 9 9s-4.032 9-9 9c-4.968 0-9-4.032-9-9s4.032-9 9-9zM11.215 18c3.867 0 7-3.133 7-7s-3.133-7-7-7c-3.868 0-7 3.132-7 7s3.132 7 7 7zM19.7 18.071l2.828 2.828-1.414 1.414-2.828-2.828 1.414-1.414z"></path>
</symbol>
<symbol id="icon-drop" viewBox="0 0 25 24">
<path d="M7.854 8.4l4.406 4.397 4.406-4.397 1.354 1.354-5.76 5.76-5.76-5.76 1.354-1.354z"></path>
</symbol>
<symbol id="icon-emotion" viewBox="0 0 24 24">
<path d="M12.215 22c-5.523 0-10-4.477-10-10s4.477-10 10-10c5.523 0 10 4.477 10 10s-4.477 10-10 10zM12.215 20c4.418 0 8-3.582 8-8s-3.582-8-8-8c-4.418 0-8 3.582-8 8s3.582 8 8 8zM7.215 13h2c0 1.657 1.343 3 3 3s3-1.343 3-3h2c0 2.761-2.239 5-5 5s-5-2.239-5-5zM8.215 11c-0.828 0-1.5-0.672-1.5-1.5s0.672-1.5 1.5-1.5 1.5 0.672 1.5 1.5c0 0.828-0.672 1.5-1.5 1.5zM16.215 11c-0.828 0-1.5-0.672-1.5-1.5s0.672-1.5 1.5-1.5c0.828 0 1.5 0.672 1.5 1.5s-0.672 1.5-1.5 1.5z"></path>
</symbol>
<symbol id="icon-pin" viewBox="0 0 24 24">
<path d="M12 23.729l-6.364-6.364c-3.515-3.515-3.515-9.213 0-12.728s9.213-3.515 12.728 0c3.515 3.515 3.515 9.213 0 12.728l-6.364 6.364zM16.95 15.951c2.734-2.734 2.734-7.166 0-9.899s-7.166-2.734-9.899 0-2.734 7.166 0 9.899l4.95 4.95 4.95-4.95zM12 13.001c-1.105 0-2-0.895-2-2s0.895-2 2-2 2 0.895 2 2c0 1.105-0.895 2-2 2z"></path>
</symbol>
<symbol id="icon-calendar" viewBox="0 0 24 24">
<path d="M9.215 1v2h6v-2h2v2h4c0.552 0 1 0.448 1 1v16c0 0.552-0.448 1-1 1h-18c-0.552 0-1-0.448-1-1v-16c0-0.552 0.448-1 1-1h4v-2h2zM20.215 8h-16v11h16v-11zM15.25 10.136l1.414 1.414-4.95 4.95-3.535-3.536 1.414-1.414 2.121 2.121 3.536-3.536z"></path>
</symbol>
<symbol id="icon-chat-heart" viewBox="0 0 24 24">
<path d="M6.453 19l-4.455 3.5v-18.5c0-0.552 0.448-1 1-1h18c0.552 0 1 0.448 1 1v14c0 0.552-0.448 1-1 1h-14.545zM3.998 18.385l1.763-1.385h14.237v-12h-16v13.385zM12.016 14.7l-3.359-3.359c-0.879-0.879-0.879-2.303 0-3.182s2.303-0.879 3.182 0l0.177 0.177 0.177-0.177c0.879-0.879 2.303-0.879 3.182 0s0.879 2.303 0 3.182l-3.359 3.359z"></path>
</symbol>
</defs>
</svg>
