<svg width="162" height="43" viewBox="0 0 162 43" fill="none" xmlns="http://www.w3.org/2000/svg">
<path d="M12.12 14.16C14.44 14.16 15.6 14.7467 15.6 15.92C15.6 17.28 14.2667 17.96 11.6 17.96C11.0133 17.96 10.3733 17.8533 9.68 17.64C8.90667 18.1733 8.30667 18.84 7.88 19.64C7.48 20.44 7.28 21.6 7.28 23.12C7.28 24.6133 7.86667 25.72 9.04 26.44C10.24 27.16 11.64 27.52 13.24 27.52C14.8667 27.52 16.1733 27.2667 17.16 26.76C18.1733 26.2267 19.0533 25.6533 19.8 25.04C20.5467 24.4267 21.1467 23.8667 21.6 23.36C22.08 22.8267 22.4267 22.56 22.64 22.56C22.8533 22.56 23.0267 22.7067 23.16 23C23.2933 23.2667 23.36 23.6267 23.36 24.08C23.36 26.2133 22.1733 28.0933 19.8 29.72C17.4533 31.32 14.64 32.12 11.36 32.12C6.24 32.12 2.92 30.64 1.4 27.68C0.866667 26.64 0.6 25.3867 0.6 23.92C0.6 20.1067 2.50667 17.44 6.32 15.92C4.37333 14.56 3.4 12.5067 3.4 9.76C3.4 8.45333 3.76 7.24 4.48 6.12C3.81333 5.37333 3.26667 4.58667 2.84 3.76C2.44 2.93333 2.24 2.30667 2.24 1.88C2.24 1.13333 2.50667 0.759999 3.04 0.759999C3.41333 0.759999 3.86667 1.05333 4.4 1.64C4.96 2.2 5.41333 2.65333 5.76 3C6.10667 3.34667 6.46667 3.62667 6.84 3.84C9.10667 2.45333 11.7733 1.76 14.84 1.76C17.9067 1.76 19.9467 2.61333 20.96 4.32C21.3333 4.96 21.52 5.74667 21.52 6.68C21.52 8.09333 20.9067 9.28 19.68 10.24C18.4533 11.2 16.84 11.68 14.84 11.68C12.84 11.68 10.9733 11.04 9.24 9.76C9.21333 9.86666 9.2 9.97333 9.2 10.08V10.96C9.2 11.44 9.34667 12.0133 9.64 12.68C9.96 13.32 10.3467 13.8533 10.8 14.28C11.2 14.2 11.64 14.16 12.12 14.16ZM17.08 7.28C17.08 6.24 16.2267 5.72 14.52 5.72C12.8133 5.72 11.44 6.24 10.4 7.28C11.84 8.16 13.3067 8.6 14.8 8.6C16.32 8.6 17.08 8.16 17.08 7.28ZM45.9319 22.56C46.4119 22.56 46.6519 23.1733 46.6519 24.4C46.6519 25.0667 46.3719 25.88 45.8119 26.84C45.2519 27.7733 44.5185 28.64 43.6119 29.44C42.7319 30.2133 41.7452 30.8533 40.6519 31.36C39.5585 31.8667 38.4919 32.12 37.4519 32.12C36.0385 32.12 35.0919 30.88 34.6119 28.4C33.9185 29.5467 33.0119 30.4933 31.8919 31.24C30.7719 31.96 29.2652 32.32 27.3719 32.32C25.5052 32.32 23.9985 31.7333 22.8519 30.56C21.7052 29.3867 21.1452 27.96 21.1719 26.28C21.1719 21.7467 22.6785 18.1733 25.6919 15.56C26.9719 14.4667 28.1585 13.7467 29.2519 13.4C30.3719 13.0533 31.5452 12.88 32.7719 12.88C33.9985 12.88 34.9985 13.0933 35.7719 13.52C36.1452 12.7467 36.5719 12.36 37.0519 12.36C37.9852 12.36 38.8652 12.7733 39.6919 13.6C40.5452 14.4 40.9719 15.16 40.9719 15.88C40.5985 16.76 40.0519 17.8133 39.3319 19.04C39.1185 20.2667 39.0119 21.9867 39.0119 24.2C39.0119 26.4133 39.2919 27.52 39.8519 27.52C40.5452 27.52 42.2252 26.1333 44.8919 23.36C45.3719 22.8267 45.7185 22.56 45.9319 22.56ZM27.0519 24.96C27.0519 27.0133 27.8119 28.04 29.3319 28.04C30.9585 28.0133 32.3052 27.1467 33.3719 25.44C33.7452 24.8533 34.0519 24.1333 34.2919 23.28C34.2919 20.2933 34.5585 17.7333 35.0919 15.6C32.9319 16.0267 31.0519 17.0667 29.4519 18.72C27.8519 20.3733 27.0519 22.4533 27.0519 24.96ZM53.7731 12.64C55.5598 12.6133 56.8931 12.9467 57.7731 13.64C58.6531 14.3067 59.0931 15.28 59.0931 16.56C59.0931 17.8133 58.7065 18.8933 57.9331 19.8C57.1865 20.68 56.2665 21.3067 55.1731 21.68C55.9465 22.48 56.6398 23.2933 57.2531 24.12C57.8931 24.9467 58.2131 25.8133 58.2131 26.72C58.2131 28.5067 57.5065 29.8933 56.0931 30.88C54.6798 31.84 52.7065 32.32 50.1731 32.32C47.6665 32.32 45.7865 31.8267 44.5331 30.84C43.2798 29.8267 42.6531 28.6933 42.6531 27.44C42.6531 26.16 42.9598 25 43.5731 23.96C44.2131 22.92 44.8931 22.4 45.6131 22.4C46.0398 22.4 46.3465 22.56 46.5331 22.88C46.7198 23.1733 47.0665 24.0533 47.5731 25.52C47.7598 26.0533 48.0665 26.56 48.4931 27.04C49.4798 28.1333 51.0398 28.68 53.1731 28.68C52.8531 27.6667 52.3331 26.8 51.6131 26.08C50.9198 25.3333 50.2265 24.6133 49.5331 23.92C48.8398 23.2267 48.2265 22.4933 47.6931 21.72C47.1598 20.92 46.8931 19.9867 46.8931 18.92C46.8931 17 47.6131 15.44 49.0531 14.24C50.4131 13.1733 51.9865 12.64 53.7731 12.64ZM53.6131 20.04C54.6798 18.8933 55.2131 17.9733 55.2131 17.28C55.2131 16.96 55.0931 16.68 54.8531 16.44C54.6398 16.1733 54.3198 16.04 53.8931 16.04C53.4665 16.04 53.0531 16.0933 52.6531 16.2C52.2798 16.3067 51.9731 16.3867 51.7331 16.44C51.7331 17.4533 52.3598 18.6533 53.6131 20.04ZM71.4678 29.08C70.1345 30.92 68.3478 31.84 66.1078 31.84C64.2945 31.84 62.8411 31.4667 61.7478 30.72C60.6811 29.9467 60.1478 28.7333 60.1478 27.08C60.1478 26.3867 60.2411 25.7467 60.4278 25.16C60.6411 24.5733 60.9745 23.8533 61.4278 23L62.5878 13.52C63.4145 12.88 64.5345 12.56 65.9478 12.56C67.1478 12.56 67.8278 13.36 67.9878 14.96C68.0411 15.44 68.0678 16.0133 68.0678 16.68C68.0678 17.32 67.9611 18 67.7478 18.72C66.6811 22.4 66.1611 24.8667 66.1878 26.12C66.1878 27.08 66.7478 27.56 67.8678 27.56C68.9878 27.56 69.8145 27.2 70.3478 26.48C70.8811 25.76 71.3345 24.8667 71.7078 23.8C72.4011 20.84 73.0411 18.4 73.6278 16.48C74.2411 14.56 74.6278 13.4133 74.7878 13.04C75.0545 12.4 75.5611 12.0667 76.3078 12.04C77.0545 12.0667 77.7611 12.6 78.4278 13.64C79.0945 14.6533 79.4278 15.44 79.4278 16C79.3745 17.8667 78.2145 22.5733 75.9478 30.12C77.6811 28.76 79.4011 27.0933 81.1078 25.12C81.6945 24.4267 82.1878 23.8533 82.5878 23.4C82.9878 22.92 83.3078 22.68 83.5478 22.68C83.9211 22.68 84.1078 23.1067 84.1078 23.96C84.1078 25.64 83.1611 27.6 81.2678 29.84C79.4011 32.08 77.1078 33.8267 74.3878 35.08C74.0678 36.1467 73.7211 37.16 73.3478 38.12C72.9745 39.08 72.4945 39.92 71.9078 40.64C70.6278 42.1867 68.6811 42.96 66.0678 42.96C64.3078 42.96 62.8011 42.4533 61.5478 41.44C60.3211 40.4267 59.7078 39.16 59.7078 37.64C59.7078 36.7867 59.9878 36.1067 60.5478 35.6C61.1345 35.0933 61.9211 34.6667 62.9078 34.32C63.9211 34 65.0945 33.7067 66.4278 33.44C67.7611 33.2 69.1878 32.8933 70.7078 32.52C71.0811 30.92 71.3345 29.7733 71.4678 29.08ZM66.0278 39.88C67.2811 39.88 68.4145 38.7867 69.4278 36.6C68.4678 36.7867 67.6145 36.92 66.8678 37C66.1211 37.1067 65.4811 37.2 64.9478 37.28C63.8811 37.44 63.3611 37.72 63.3878 38.12C63.3878 38.6267 63.6811 39.0533 64.2678 39.4C64.8811 39.7467 65.4678 39.9067 66.0278 39.88ZM109.474 22.56C109.927 22.56 110.154 23.1733 110.154 24.4C110.154 25.0667 109.874 25.88 109.314 26.84C108.754 27.7733 108.021 28.64 107.114 29.44C106.234 30.2133 105.247 30.8533 104.154 31.36C103.061 31.8667 102.021 32.12 101.034 32.12C100.047 32.12 99.2741 31.9333 98.7141 31.56C98.1541 31.1867 97.7141 30.68 97.3941 30.04C96.9407 29.1333 96.5674 27.4133 96.2741 24.88C95.9807 22.32 95.6874 20.5333 95.3941 19.52C94.7007 19.3867 94.0874 19.12 93.5541 18.72C93.0474 18.2933 92.7941 17.7867 92.7941 17.2C92.7941 16.5867 93.0607 16.1467 93.5941 15.88C94.1541 15.6133 94.7807 15.48 95.4741 15.48C96.1941 15.48 96.8341 15.6533 97.3941 16C98.1407 15.3867 98.7407 14.6667 99.1941 13.84C99.6741 12.9867 99.9141 11.8533 99.9141 10.44C99.9141 9 99.4341 7.85333 98.4741 7C97.5141 6.14667 96.1007 5.72 94.2341 5.72C92.3941 5.72 90.9807 5.86667 89.9941 6.16C89.0074 6.45333 88.1541 6.77333 87.4341 7.12C86.7407 7.46667 86.1141 7.78667 85.5541 8.08C85.0207 8.37333 84.5141 8.52 84.0341 8.52C83.5541 8.52 83.3141 8.37333 83.3141 8.08C83.3141 7.76 83.5674 7.25333 84.0741 6.56C84.5807 5.86666 85.3274 5.17333 86.3141 4.48C88.7941 2.74667 91.5941 1.89333 94.7141 1.92C97.8341 1.92 100.407 2.50667 102.434 3.68C104.807 5.06667 105.994 7.14667 105.994 9.92C106.021 12.2133 105.421 14.12 104.194 15.64C102.967 17.16 101.447 18.2533 99.6341 18.92C100.034 19.8 100.354 20.7467 100.594 21.76C100.861 22.7733 101.114 23.7067 101.354 24.56C101.594 25.4133 101.861 26.12 102.154 26.68C102.474 27.24 102.847 27.52 103.274 27.52C103.727 27.52 104.261 27.2667 104.874 26.76C105.514 26.2267 106.141 25.6533 106.754 25.04C107.367 24.4267 107.914 23.8667 108.394 23.36C108.901 22.8267 109.261 22.56 109.474 22.56ZM92.0741 8.16C92.4207 8.16 92.5941 8.61333 92.5941 9.52C92.5941 10.4267 92.5407 11.28 92.4341 12.08C92.1941 13.6267 91.8874 15.0667 91.5141 16.4C90.5541 20.0267 90.0741 22.1467 90.0741 22.76V28.64C90.0741 30.08 89.5274 31.0667 88.4341 31.6C87.9274 31.84 87.4341 32.0667 86.9541 32.28C86.5007 32.4933 85.9807 32.6 85.3941 32.6C84.2741 32.6 83.7141 31.32 83.7141 28.76C83.7141 26.1733 84.3141 22.92 85.5141 19C86.7141 15.08 87.9674 12.0933 89.2741 10.04C89.5407 9.64 89.9274 9.22667 90.4341 8.8C90.9407 8.37333 91.4874 8.16 92.0741 8.16ZM117.489 27.64C119.569 27.64 121.582 26.8133 123.529 25.16C124.249 24.5467 124.835 23.9867 125.289 23.48C125.742 22.9467 126.089 22.68 126.329 22.68C126.702 22.68 126.889 23.0533 126.889 23.8C126.889 24.5467 126.689 25.3867 126.289 26.32C125.889 27.2267 125.222 28.12 124.289 29C121.995 31.16 118.849 32.24 114.849 32.24C111.675 32.24 109.515 31.0933 108.369 28.8C107.969 28 107.769 26.8533 107.769 25.36C107.769 23.8667 108.062 22.32 108.649 20.72C109.235 19.0933 110.009 17.6933 110.969 16.52C111.955 15.3467 113.089 14.44 114.369 13.8C115.649 13.1333 117.009 12.8 118.449 12.8C119.915 12.8 121.035 13.16 121.809 13.88C122.609 14.6 123.009 15.5333 123.009 16.68C123.009 17.8267 122.715 18.7733 122.129 19.52C121.569 20.24 120.835 20.8533 119.929 21.36C119.022 21.84 118.009 22.28 116.889 22.68C115.795 23.0533 114.715 23.48 113.649 23.96V24.96C113.675 25.92 114.075 26.6 114.849 27C115.622 27.4 116.502 27.6133 117.489 27.64ZM116.809 16.36C115.422 16.36 114.462 17.9733 113.929 21.2C114.489 20.8267 115.009 20.4933 115.489 20.2C115.995 19.9067 116.435 19.6267 116.809 19.36C117.609 18.7733 118.022 18.1067 118.049 17.36C118.049 16.6933 117.635 16.36 116.809 16.36ZM130.208 12.04C131.168 12.04 132.074 12.96 132.928 14.8C134.181 13.4933 135.728 12.84 137.568 12.84C139.434 12.84 140.834 13.2533 141.768 14.08C142.701 14.88 143.168 16.0267 143.168 17.52C143.168 18.9867 142.968 20.48 142.568 22C142.194 23.52 141.914 24.6133 141.728 25.28C141.568 25.92 141.488 26.4533 141.488 26.88C141.488 27.3067 141.634 27.52 141.928 27.52C142.328 27.52 142.821 27.2667 143.408 26.76C143.994 26.2533 144.581 25.7067 145.168 25.12C145.754 24.5067 146.288 23.9467 146.768 23.44C147.274 22.9333 147.621 22.68 147.808 22.68C148.181 22.68 148.368 23.1333 148.368 24.04C148.368 25.9067 147.448 27.7067 145.608 29.44C142.514 31.2533 140.541 32.16 139.688 32.16C139.608 32.16 139.554 32.1467 139.528 32.12C137.394 32.12 136.328 30.4133 136.328 27C136.328 25.5333 136.461 24.1867 136.728 22.96C137.021 21.7333 137.234 20.84 137.368 20.28C137.501 19.72 137.568 19.1467 137.568 18.56C137.568 17.6 137.008 17.12 135.888 17.12C134.794 17.12 133.741 17.9467 132.728 19.6C131.741 21.2267 131.074 22.92 130.728 24.68V24.96C130.728 25.8667 130.861 26.8 131.128 27.76C131.421 28.72 131.568 29.3867 131.568 29.76C131.568 30.6667 130.434 31.56 128.168 32.44C127.821 32.5733 127.514 32.64 127.248 32.64C126.581 32.64 126.114 32.2933 125.848 31.6C125.608 30.9067 125.488 29.8267 125.488 28.36C125.488 24.5733 125.634 21.84 125.928 20.16C126.328 17.6533 127.234 15.32 128.648 13.16C129.128 12.4133 129.648 12.04 130.208 12.04ZM148.132 29.84C147.839 29.12 147.625 28.2933 147.492 27.36C147.359 26.4 147.292 25.0667 147.292 23.36C147.292 21.6533 147.612 19.3467 148.252 16.44H146.452C146.132 16.44 145.972 16.3067 145.972 16.04C145.972 15.4 146.025 14.88 146.132 14.48C146.265 14.0533 146.559 13.5733 147.012 13.04H147.972C148.345 13.04 148.745 13.0267 149.172 13C150.452 8.89333 151.759 6.84 153.092 6.84C154.159 6.86667 154.905 7.54667 155.332 8.88C155.439 9.25333 155.559 9.65333 155.692 10.08L154.052 12.96C155.919 13.0133 157.092 13.04 157.572 13.04C158.079 13.04 158.345 13.0933 158.372 13.2C158.425 13.28 158.452 13.4133 158.452 13.6C158.452 14.08 158.332 14.68 158.092 15.4C157.879 16.12 157.625 16.4667 157.332 16.44L153.332 16.24C152.772 19.4933 152.492 22.1867 152.492 24.32C152.492 26.4533 152.799 27.52 153.412 27.52C153.919 27.52 154.839 27.1067 156.172 26.28C157.505 25.4267 158.465 24.6133 159.052 23.84C159.639 23.0667 160.119 22.68 160.492 22.68C160.865 22.68 161.052 23.1333 161.052 24.04C161.052 24.9467 160.732 25.88 160.092 26.84C159.452 27.7733 158.639 28.64 157.652 29.44C156.692 30.2133 155.612 30.8533 154.412 31.36C153.239 31.8667 152.212 32.12 151.332 32.12C150.452 32.12 149.772 31.92 149.292 31.52C148.839 31.0933 148.452 30.5333 148.132 29.84Z" fill="#F6F6F6"/>
</svg>
